<svg width="460" height="500" viewBox="0 0 460 500" fill="none" xmlns="http://www.w3.org/2000/svg">
<path fill-rule="evenodd" clip-rule="evenodd" d="M285.79 2.5625C336.976 -11.4844 373.307 59.0625 406.16 100.752C431.68 133.135 442.537 172.358 451.339 212.637C459.26 248.887 463.866 285.329 454.327 321.188C444.36 358.652 425.866 393.496 396.494 418.797C365.3 445.667 325.548 455.668 285.79 466.362C230.819 481.149 174.599 512.829 121.307 492.819C63.642 471.168 -0.444741 420.769 0.329735 359.179C1.15097 293.87 78.4277 260.105 124.811 214.121C148.953 190.187 184.855 182.889 205.441 155.835C241.248 108.777 228.766 18.2116 285.79 2.5625Z" fill="#5F30E2"/>
</svg>
